<svg width="92" height="78" viewBox="0 0 92 78" fill="none" xmlns="http://www.w3.org/2000/svg">
<rect width="92" height="78" fill="#F5F5F5"/>
<g id="Article_main" clip-path="url(#clip0_0_1)">
<rect width="1024" height="1748" transform="translate(-16 -1)" fill="white"/>
<g id="Group 44">
<g id="Article1">
<rect width="1024" height="1895" transform="translate(-16 -1)" fill="white"/>
</g>
</g>
<g id="Group 53">
<rect id="Rectangle 1" x="-16" y="-14" width="1024" height="100" fill="white"/>
<g id="Group 52">
<g id="Group 51">
<circle id="Ellipse 44" cx="45.9997" cy="32.8571" r="32.8571" fill="url(#paint0_linear_0_1)"/>
<g id="Group 47">
<g id="Vector">
<path d="M33.6784 48.875C33.6784 50.6274 33.87 51.9143 34.2534 52.7358C34.6367 53.5024 35.376 54.05 36.4712 54.3786C37.6212 54.7072 39.401 54.8715 41.8105 54.8715C41.9748 54.8715 42.0569 55.0358 42.0569 55.3643C42.0569 55.6929 41.9748 55.8572 41.8105 55.8572C39.8391 55.8572 38.3331 55.8298 37.2927 55.775L31.2141 55.6929L26.3677 55.775C25.4367 55.8298 24.1772 55.8572 22.5891 55.8572C22.4796 55.8572 22.4248 55.6929 22.4248 55.3643C22.4248 55.0358 22.4796 54.8715 22.5891 54.8715C24.3962 54.8715 25.7105 54.7346 26.5319 54.4608C27.3534 54.1869 27.901 53.6667 28.1748 52.9C28.5034 52.0786 28.6677 50.8465 28.6677 49.2036V24.0679C28.6677 22.425 28.5034 21.2203 28.1748 20.4536C27.901 19.6869 27.326 19.1667 26.4498 18.8929C25.6284 18.5643 24.3415 18.4 22.5891 18.4C22.4796 18.4 22.4248 18.2357 22.4248 17.9072C22.4248 17.5786 22.4796 17.4143 22.5891 17.4143L26.2855 17.4965C28.3665 17.606 29.9819 17.6607 31.1319 17.6607C32.0629 17.6607 32.9391 17.6334 33.7605 17.5786C34.6367 17.5238 35.376 17.4691 35.9784 17.4143C37.676 17.25 39.2641 17.1679 40.7427 17.1679C49.7784 17.1679 54.2962 20.5084 54.2962 27.1893C54.2962 29.8179 53.6117 32.0357 52.2427 33.8429C50.9284 35.5953 49.2308 36.9096 47.1498 37.7857C45.1236 38.6619 43.0153 39.1 40.8248 39.1C39.3462 39.1 38.1415 38.9905 37.2105 38.7715C37.101 38.7715 37.0462 38.6346 37.0462 38.3608C37.0462 37.9227 37.1831 37.7036 37.4569 37.7036C38.2784 37.8679 39.1272 37.95 40.0034 37.95C42.4129 37.95 44.4391 37.1834 46.0819 35.65C47.7796 34.0619 48.6284 31.7893 48.6284 28.8322C48.6284 25.3822 47.7248 22.781 45.9177 21.0286C44.1653 19.2215 41.7831 18.3179 38.7712 18.3179C37.4022 18.3179 36.3617 18.4274 35.6498 18.6465C34.9927 18.8655 34.4998 19.3857 34.1712 20.2072C33.8427 21.0286 33.6784 22.3703 33.6784 24.2322V48.875Z" fill="white"/>
<path d="M52.4069 17.4965C52.4069 19.1393 52.8177 20.5905 53.6391 21.85C54.5153 23.0548 55.5831 24.0679 56.8427 24.8893C58.1022 25.7107 59.7724 26.6691 61.8534 27.7643C64.0986 28.9691 65.9058 30.0369 67.2748 30.9679C68.6439 31.8441 69.7939 32.9667 70.7248 34.3358C71.6558 35.7048 72.1212 37.3477 72.1212 39.2643C72.1212 41.2905 71.5462 43.1524 70.3962 44.85C69.301 46.4929 67.7129 47.8072 65.632 48.7929C63.551 49.7786 61.1141 50.2715 58.3212 50.2715C54.3236 50.2715 51.0105 49.3131 48.3819 47.3965C48.1081 47.2869 47.9165 47.1227 47.8069 46.9036C47.7522 46.6846 47.6974 46.3286 47.6427 45.8358L46.8212 37.7036C46.7665 37.4846 46.876 37.3477 47.1498 37.2929C47.4784 37.2381 47.6974 37.3203 47.8069 37.5393C48.5736 40.7155 50.0796 43.4262 52.3248 45.6715C54.6248 47.8619 57.1712 48.9572 59.9641 48.9572C61.8808 48.9572 63.5236 48.4096 64.8927 47.3143C66.3165 46.1643 67.0284 44.4119 67.0284 42.0572C67.0284 39.5381 66.2069 37.4846 64.5641 35.8965C62.9212 34.3084 60.5391 32.6929 57.4177 31.05C55.2272 29.8453 53.4748 28.8048 52.1605 27.9286C50.901 26.9977 49.8331 25.875 48.9569 24.5607C48.0808 23.2465 47.6427 21.6584 47.6427 19.7965C47.6427 16.675 48.8474 14.2381 51.2569 12.4857C53.6665 10.7334 56.5962 9.85718 60.0462 9.85718C62.9486 9.85718 65.6867 10.4869 68.2605 11.7465C68.7534 12.0203 69.0546 12.2393 69.1641 12.4036C69.3284 12.5131 69.4379 12.7596 69.4927 13.1429L70.0677 20.2893C70.0677 20.5084 69.9034 20.6453 69.5748 20.7C69.301 20.7548 69.1367 20.6727 69.0819 20.4536C68.8081 19.0846 68.1784 17.6881 67.1927 16.2643C66.2617 14.7857 65.0296 13.5536 63.4962 12.5679C62.0177 11.5822 60.3748 11.0893 58.5677 11.0893C56.5962 11.0893 55.0629 11.6917 53.9677 12.8965C52.9272 14.1012 52.4069 15.6346 52.4069 17.4965Z" fill="white"/>
</g>
</g>
</g>
<g id="Vector_2">
<path d="M86.6694 29.3664L86.261 29.4235C86.1422 29.4402 86.0383 29.4147 85.9491 29.3471C85.86 29.2796 85.8072 29.1862 85.7906 29.067L85.0223 23.534C85.0057 23.4148 85.0311 23.3105 85.0984 23.2211C85.1658 23.1316 85.2588 23.0786 85.3776 23.062L85.786 23.0049C85.9048 22.9883 86.0087 23.0138 86.0979 23.0813C86.1841 23.1493 86.2355 23.2428 86.252 23.362L86.522 25.3067L91.1237 24.6633C91.2367 24.6475 91.3379 24.6748 91.4274 24.7453C91.5136 24.8132 91.5646 24.9039 91.5804 25.0172L91.6948 25.8413C91.7106 25.9547 91.6864 26.0573 91.6224 26.1492C91.5551 26.2387 91.4649 26.2913 91.352 26.3071L86.7503 26.9505L87.0204 28.8951C87.0369 29.0143 87.013 29.1184 86.9486 29.2074C86.8812 29.2968 86.7882 29.3498 86.6694 29.3664Z" fill="url(#paint1_linear_0_1)"/>
<path d="M91.8309 32.6463C91.9561 32.658 92.0118 32.7384 91.9979 32.8874L91.9001 33.9394C91.8897 34.0504 91.839 34.1695 91.7479 34.2965C91.6541 34.4204 91.5472 34.5121 91.4271 34.5716L90.1958 35.2079C89.6896 35.47 89.4163 35.8187 89.3758 36.2541L89.2763 37.3237L91.1547 37.4996C91.2682 37.5102 91.362 37.5603 91.4359 37.6497C91.5072 37.736 91.5376 37.8361 91.527 37.9501L91.4503 38.7741C91.4397 38.8881 91.3913 38.9823 91.305 39.0568C91.2159 39.131 91.1145 39.1627 91.001 39.1521L85.5625 38.6427C85.4489 38.632 85.355 38.5835 85.2808 38.4969C85.2066 38.4104 85.1748 38.3101 85.1854 38.1962L85.5218 34.58C85.584 33.9108 85.8141 33.3797 86.212 32.9866C86.6102 32.5906 87.1136 32.4211 87.7222 32.4781C88.5696 32.5575 89.0499 33.1581 89.1629 34.2799C89.2433 34.1106 89.369 33.9588 89.5401 33.8245C89.7084 33.6899 89.95 33.5401 90.2649 33.3751L91.6016 32.6955C91.6875 32.6564 91.7639 32.64 91.8309 32.6463ZM88.0401 37.2079L88.2138 35.3406C88.2418 35.0396 88.2067 34.7696 88.1085 34.5305C88.0106 34.2884 87.8306 34.1551 87.5685 34.1306C87.3064 34.106 87.1049 34.2036 86.964 34.4233C86.8234 34.64 86.7391 34.8989 86.7111 35.1999L86.5374 37.0671L88.0401 37.2079Z" fill="url(#paint2_linear_0_1)"/>
<path d="M89.2712 44.6775C89.5644 45.4177 89.5169 46.3352 89.1286 47.4302C88.7413 48.5224 88.2005 49.2638 87.5063 49.6546C86.8092 50.0443 85.9248 50.0478 84.8528 49.6651C83.7809 49.2823 83.0988 48.7195 82.8066 47.9765C82.5144 47.2336 82.5619 46.316 82.9492 45.2238C83.3375 44.1289 83.8783 43.3874 84.5716 42.9994C85.2658 42.6087 86.1489 42.6047 87.2208 42.9875C88.2927 43.3702 88.9762 43.9335 89.2712 44.6775ZM85.0422 44.4431C84.6125 44.6043 84.2868 44.9974 84.0652 45.6223C83.8446 46.2444 83.8496 46.7555 84.0803 47.1556C84.3119 47.553 84.7556 47.8687 85.4115 48.1029C86.0645 48.3361 86.6059 48.3721 87.0356 48.2109C87.4636 48.0459 87.7878 47.6524 88.0085 47.0302C88.2301 46.4053 88.2264 45.8947 87.9975 45.4984C87.7659 45.101 87.3235 44.7858 86.6705 44.5526C86.0146 44.3184 85.4719 44.2819 85.0422 44.4431Z" fill="url(#paint3_linear_0_1)"/>
<path d="M81.7058 59.7163L77.1668 56.6673C77.072 56.6036 77.0125 56.516 76.9884 56.4045C76.9643 56.2929 76.984 56.1896 77.0474 56.0944L78.9096 53.3032C79.8939 51.8277 81.0642 51.5454 82.4205 52.4564C83.7743 53.3658 83.959 54.5582 82.9746 56.0338L81.8056 57.7861L82.6259 58.3371C82.7206 58.4008 82.7793 58.4896 82.8018 58.6036C82.8235 58.7135 82.8026 58.816 82.7392 58.9112L82.2803 59.5989C82.2169 59.694 82.1296 59.7537 82.0184 59.7779C81.9048 59.8005 81.8006 59.7799 81.7058 59.7163ZM80.7738 57.093L81.6646 55.7577C81.938 55.348 82.0774 54.9913 82.0828 54.6877C82.0858 54.3825 81.8917 54.0985 81.5004 53.8356C81.1066 53.5711 80.7709 53.4992 80.4932 53.62C80.2132 53.7391 79.9364 54.0035 79.6631 54.4133L78.7723 55.7485L80.7738 57.093Z" fill="url(#paint4_linear_0_1)"/>
<path d="M72.9864 66.6403C72.8697 66.5127 72.8243 66.3872 72.8502 66.2637C72.8741 66.138 72.9216 66.0424 72.9927 65.9769L73.3772 65.6225C73.571 65.4438 73.8155 65.4137 74.1107 65.5322C74.4058 65.6507 74.73 65.5471 75.0833 65.2215L76.2349 64.2018C76.614 63.8523 76.6897 63.5533 76.4622 63.3048C76.29 63.1167 75.923 63.1821 75.3609 63.501C75.1086 63.6418 74.8358 63.8037 74.5424 63.9864C74.247 64.1671 73.9419 64.3348 73.6269 64.4896C73.3141 64.6425 73.0088 64.7645 72.711 64.8557C72.4132 64.9469 72.1205 64.9656 71.833 64.9118C71.5456 64.8539 71.2941 64.7071 71.0784 64.4715C70.6807 64.0371 70.529 63.5612 70.6233 63.0439C70.7156 62.5244 71.1377 61.9181 71.8894 61.2252L72.7278 60.4882C73.1694 60.0812 73.6717 59.8294 74.2347 59.7329C74.7978 59.6322 75.2357 59.7526 75.5484 60.0941C75.6651 60.2216 75.7115 60.3482 75.6876 60.4739C75.6636 60.5996 75.6172 60.6942 75.5483 60.7578L75.1638 61.1122C74.9699 61.2909 74.7254 61.321 74.4303 61.2025C74.1331 61.0818 73.808 61.1843 73.4547 61.5099L72.4644 62.3869C72.0853 62.7364 72.0095 63.0354 72.2371 63.2839C72.3618 63.4201 72.5832 63.4212 72.9014 63.2873C73.2218 63.1513 73.5828 62.96 73.9845 62.7133C74.3863 62.4625 74.8021 62.2247 75.2318 61.9999C75.6616 61.7752 76.0939 61.6596 76.5289 61.6532C76.964 61.6426 77.327 61.7962 77.6179 62.1139C78.0156 62.5483 78.1672 63.0263 78.0728 63.5478C77.9784 64.0651 77.5565 64.6693 76.8069 65.3602L75.8102 66.2432C75.3686 66.6502 74.8662 66.9041 74.3031 67.0047C73.7379 67.1032 73.299 66.9817 72.9864 66.6403Z" fill="url(#paint5_linear_0_1)"/>
<path d="M59.3982 74.9959L57.3196 69.9274C57.2761 69.8215 57.2754 69.7155 57.3172 69.6094C57.3591 69.5033 57.4328 69.4284 57.5383 69.3848L58.7311 68.8923C58.8257 68.8532 58.9414 68.8499 59.078 68.8823C59.2147 68.9147 59.3385 68.9699 59.4496 69.0478L63.4512 71.8179L61.8967 68.0278C61.8533 67.9219 61.8531 67.8173 61.8961 67.7138C61.9418 67.6093 62.0173 67.5352 62.1228 67.4917L62.8207 67.2035C62.9261 67.16 63.0304 67.1597 63.1335 67.2029C63.2393 67.2449 63.315 67.3215 63.3606 67.4328L65.4393 72.5013C65.4827 72.6071 65.4822 72.7137 65.4376 72.8209C65.3946 72.9244 65.3204 72.9979 65.2149 73.0414L63.8679 73.5976C63.7624 73.6412 63.6392 73.6492 63.4983 73.6218C63.3562 73.5916 63.231 73.5369 63.1227 73.4579L59.4466 70.8914L60.8791 74.3844C60.9225 74.4902 60.9219 74.5968 60.8774 74.704C60.8344 74.8075 60.7602 74.881 60.6547 74.9245L59.9406 75.2194C59.8351 75.263 59.7295 75.2637 59.6237 75.2217C59.5168 75.177 59.4417 75.1017 59.3982 74.9959Z" fill="url(#paint6_linear_0_1)"/>
<path d="M53.6229 75.9733C53.1007 76.5732 52.2656 76.9501 51.1175 77.1038C49.9724 77.2572 49.068 77.1133 48.4044 76.6722C47.7405 76.2281 47.3332 75.4403 47.1827 74.3087C47.0322 73.177 47.2194 72.3111 47.7445 71.7107C48.2696 71.1104 49.1047 70.7336 50.2498 70.5802C51.3979 70.4265 52.3022 70.5703 52.9629 71.0119C53.6265 71.453 54.0336 72.2394 54.1841 73.371C54.3346 74.5026 54.1475 75.3701 53.6229 75.9733ZM51.8982 72.0916C51.559 71.7817 51.0617 71.6706 50.4065 71.7584C49.7542 71.8458 49.3034 72.0838 49.0542 72.4725C48.8078 72.8608 48.7306 73.4011 48.8227 74.0935C48.9144 74.7829 49.1299 75.2826 49.4692 75.5925C49.8109 75.899 50.3079 76.0086 50.9603 75.9213C51.6155 75.8335 52.0664 75.597 52.3132 75.2116C52.5596 74.8233 52.6369 74.2844 52.5452 73.5949C52.4531 72.9026 52.2374 72.4014 51.8982 72.0916Z" fill="url(#paint7_linear_0_1)"/>
<path d="M42.7559 76.7557L42.9924 71.2712C42.9973 71.1568 43.0425 71.0604 43.1278 70.9818C43.2132 70.9033 43.3128 70.8665 43.4268 70.8714L44.2421 70.9068C44.3619 70.912 44.4595 70.9574 44.5348 71.0429C44.6131 71.1285 44.6498 71.2286 44.6448 71.3429L44.4087 76.8187C44.4038 76.933 44.3572 77.0294 44.2689 77.1078C44.1837 77.1834 44.0841 77.2188 43.9701 77.2138L43.1549 77.1784C43.0409 77.1735 42.9447 77.1311 42.8661 77.0513C42.7877 76.9686 42.751 76.8701 42.7559 76.7557Z" fill="url(#paint8_linear_0_1)"/>
<path d="M33.8597 70.1445L33.9424 69.7391C33.9664 69.6212 34.0251 69.5314 34.1183 69.4696C34.2115 69.4079 34.3168 69.3891 34.4343 69.4132L39.8886 70.5335C40.0061 70.5576 40.0956 70.6164 40.1571 70.71C40.2187 70.8035 40.2374 70.9092 40.2134 71.0271L40.1307 71.4325C40.1066 71.5504 40.048 71.6402 39.9548 71.7019C39.8622 71.7608 39.7571 71.7782 39.6396 71.754L37.7227 71.3603L36.791 75.9277C36.7681 76.0398 36.7086 76.1264 36.6126 76.1876C36.5199 76.2465 36.4178 76.2644 36.306 76.2415L35.4937 76.0746C35.3819 76.0517 35.2935 75.9946 35.2286 75.9033C35.167 75.8098 35.1477 75.707 35.1706 75.5948L36.1023 71.0275L34.1853 70.6337C34.0678 70.6096 33.978 70.5522 33.9159 70.4616C33.8544 70.3681 33.8356 70.2624 33.8597 70.1445Z" fill="url(#paint9_linear_0_1)"/>
<path d="M22.5693 70.6287L24.9075 65.6754C24.9563 65.5719 25.0339 65.5 25.1403 65.4597C25.2468 65.4193 25.3515 65.4237 25.4546 65.4727L26.6203 66.0267C26.7128 66.0707 26.7931 66.1543 26.8611 66.2776C26.9292 66.4008 26.9718 66.5299 26.9891 66.6647L27.6392 71.4991L29.3877 67.795C29.4365 67.6916 29.5135 67.621 29.6187 67.5833C29.7265 67.5469 29.8319 67.5532 29.935 67.6022L30.617 67.9263C30.7201 67.9753 30.7904 68.0526 30.828 68.1581C30.8682 68.2649 30.8626 68.3727 30.8113 68.4814L28.4731 73.4347C28.4242 73.5382 28.3453 73.6094 28.2362 73.6485C28.1311 73.6862 28.0269 73.6806 27.9238 73.6316L26.6075 73.0059C26.5044 72.9569 26.4156 72.8708 26.341 72.7477C26.2677 72.6219 26.2237 72.4923 26.2091 72.3587L25.6279 67.9029L24.0165 71.3165C23.9676 71.42 23.8887 71.4912 23.7796 71.5303C23.6744 71.568 23.5703 71.5624 23.4672 71.5134L22.7694 71.1817C22.6663 71.1327 22.5947 71.0548 22.5544 70.948C22.5155 70.8386 22.5204 70.7321 22.5693 70.6287Z" fill="url(#paint10_linear_0_1)"/>
<path d="M14.3089 64.2732L17.7639 60.0281C17.836 59.9394 17.9288 59.8904 18.0422 59.881C18.1556 59.8716 18.2564 59.9031 18.3448 59.9755L22.2628 63.1861C22.3512 63.2585 22.4 63.3516 22.4094 63.4654C22.421 63.581 22.3907 63.6831 22.3186 63.7718L22.0577 64.0923C21.9856 64.181 21.8919 64.2311 21.7767 64.2428C21.6655 64.254 21.5658 64.2235 21.4775 64.1511L18.5177 61.7257L17.7102 62.7179L20.2587 64.8064C20.3471 64.8788 20.396 64.9719 20.4053 65.0856C20.4188 65.199 20.3895 65.3 20.3173 65.3886L20.0565 65.7092C19.9843 65.7978 19.8906 65.848 19.7754 65.8596C19.6643 65.8709 19.5645 65.8403 19.4762 65.7679L16.9276 63.6795L16.109 64.6854L19.0619 67.1052C19.148 67.1757 19.1966 67.2667 19.2079 67.3782C19.2191 67.4897 19.1886 67.5898 19.1165 67.6785L18.8501 68.0058C18.7779 68.0945 18.6842 68.1446 18.569 68.1563C18.4556 68.1657 18.3547 68.1342 18.2664 68.0618L14.3654 64.8651C14.277 64.7927 14.2261 64.6998 14.2126 64.5865C14.201 64.4708 14.2331 64.3664 14.3089 64.2732Z" fill="url(#paint11_linear_0_1)"/>
<path d="M11.4174 52.0967C11.4346 52.0613 11.4594 52.0311 11.4919 52.0061C11.5267 51.9794 11.5845 51.9682 11.6653 51.9726C11.7502 51.9776 11.8229 52.0197 11.8834 52.0989L12.4679 52.864C12.6067 53.0457 12.6023 53.2691 12.4547 53.5342L10.4863 57.195L14.5206 56.2385C14.8118 56.1662 15.0279 56.2199 15.169 56.3998L15.7536 57.165C15.8159 57.2465 15.8375 57.3279 15.8184 57.4091C15.8017 57.4885 15.776 57.5416 15.7411 57.5684C15.7086 57.5934 15.674 57.6108 15.6373 57.6206L9.7544 58.9506C9.434 59.0232 9.18838 58.9478 9.01756 58.7241L8.63321 58.221C8.46238 57.9974 8.45354 57.7398 8.60668 57.4482L11.4174 52.0967Z" fill="url(#paint12_linear_0_1)"/>
<path d="M2.82438 46.5727L7.80722 44.3276C7.91127 44.2807 8.0161 44.2785 8.12169 44.321C8.22727 44.3635 8.30343 44.437 8.35016 44.5414L10.4223 49.1719C10.469 49.2763 10.4712 49.3815 10.4288 49.4874C10.3877 49.596 10.3151 49.6738 10.211 49.7207L9.83479 49.8902C9.73073 49.9371 9.62458 49.9399 9.51632 49.8986C9.41193 49.8587 9.33637 49.7866 9.28965 49.6822L7.72431 46.1842L6.55965 46.709L7.90753 49.721C7.95425 49.8254 7.95643 49.9306 7.91407 50.0366C7.87558 50.144 7.8043 50.2212 7.70024 50.268L7.32403 50.4376C7.21997 50.4844 7.11381 50.4872 7.00556 50.4459C6.90117 50.4061 6.82561 50.334 6.77888 50.2296L5.43101 47.2176L4.25034 47.7495L5.81207 51.2395C5.8576 51.3412 5.86052 51.4444 5.82083 51.5492C5.78114 51.6539 5.70926 51.7298 5.6052 51.7766L5.22098 51.9498C5.11692 51.9967 5.01076 51.9994 4.90251 51.9581C4.79692 51.9156 4.72076 51.8422 4.67404 51.7378L2.61089 47.1274C2.56416 47.023 2.56005 46.917 2.59854 46.8096C2.6397 46.701 2.71498 46.622 2.82438 46.5727Z" fill="url(#paint13_linear_0_1)"/>
<path d="M1.33974 42.2853C1.2162 42.309 1.14046 42.2473 1.1125 42.1002L0.915155 41.0624C0.894325 40.9529 0.910087 40.8244 0.962442 40.6769C1.01822 40.5318 1.09555 40.4139 1.19444 40.3232L2.20099 39.3686C2.61461 38.9757 2.78057 38.5645 2.6989 38.1349L2.49826 37.0798L0.645173 37.4346C0.533126 37.456 0.429205 37.4341 0.333412 37.3688C0.24104 37.3058 0.184165 37.2181 0.162786 37.1057L0.0082006 36.2927C-0.0131782 36.1803 0.00724359 36.0763 0.069466 35.9807C0.134561 35.8846 0.223133 35.8258 0.33518 35.8043L5.70053 34.7771C5.81257 34.7557 5.91622 34.7761 6.01147 34.8386C6.10671 34.901 6.16502 34.9884 6.1864 35.1009L6.86477 38.6684C6.9903 39.3286 6.91639 39.903 6.64304 40.3915C6.37025 40.883 5.93362 41.1862 5.33316 41.3011C4.49711 41.4612 3.86946 41.0182 3.45019 39.972C3.41988 40.1571 3.34113 40.338 3.21394 40.5147C3.08963 40.6909 2.89904 40.9022 2.64217 41.1486L1.54637 42.174C1.4747 42.2356 1.40582 42.2727 1.33974 42.2853ZM3.71786 36.8463L4.06814 38.6885C4.1246 38.9854 4.23311 39.235 4.39366 39.4373C4.55476 39.6425 4.7646 39.7204 5.02317 39.6709C5.28174 39.6214 5.44827 39.4715 5.52275 39.2212C5.59779 38.9737 5.60708 38.7016 5.55061 38.4046L5.20033 36.5625L3.71786 36.8463Z" fill="url(#paint14_linear_0_1)"/>
<path d="M0.523261 24.7211L5.97751 25.0156C6.09141 25.0218 6.18713 25.0666 6.26466 25.1502C6.3422 25.2337 6.3779 25.3326 6.37177 25.4469L6.19191 28.801C6.09683 30.5741 5.23444 31.4166 3.60474 31.3286C1.97796 31.2408 1.21211 30.3103 1.30718 28.5373L1.4201 26.4316L0.434391 26.3784C0.320487 26.3723 0.224847 26.3259 0.14747 26.2395C0.0728565 26.1561 0.0386142 26.0572 0.0447432 25.9429L0.0890601 25.1165C0.095189 25.0022 0.139882 24.9062 0.223139 24.8284C0.309316 24.7507 0.409357 24.715 0.523261 24.7211ZM2.6599 26.4986L2.57386 28.1031C2.54746 28.5954 2.6092 28.9735 2.75908 29.2373C2.91188 29.5013 3.22339 29.6459 3.69361 29.6713C4.16675 29.6969 4.49193 29.5866 4.66916 29.3404C4.84931 29.0945 4.95258 28.7253 4.97898 28.2329L5.06502 26.6284L2.6599 26.4986Z" fill="url(#paint15_linear_0_1)"/>
</g>
</g>
</g>
</g>
<defs>
<linearGradient id="paint0_linear_0_1" x1="66.5354" y1="7.39286" x2="18.8926" y2="52.5714" gradientUnits="userSpaceOnUse">
<stop stop-color="#FF4D00"/>
<stop offset="1" stop-color="#3C6AC0"/>
<stop offset="1" stop-color="#FF4D00" stop-opacity="0"/>
</linearGradient>
<linearGradient id="paint1_linear_0_1" x1="96.3882" y1="6.65311" x2="28.7306" y2="-11.0932" gradientUnits="userSpaceOnUse">
<stop stop-color="#FF4D00"/>
<stop offset="1" stop-color="#3C6AC0"/>
</linearGradient>
<linearGradient id="paint2_linear_0_1" x1="96.3882" y1="6.65311" x2="28.7306" y2="-11.0932" gradientUnits="userSpaceOnUse">
<stop stop-color="#FF4D00"/>
<stop offset="1" stop-color="#3C6AC0"/>
</linearGradient>
<linearGradient id="paint3_linear_0_1" x1="96.3882" y1="6.65311" x2="28.7306" y2="-11.0932" gradientUnits="userSpaceOnUse">
<stop stop-color="#FF4D00"/>
<stop offset="1" stop-color="#3C6AC0"/>
</linearGradient>
<linearGradient id="paint4_linear_0_1" x1="96.3882" y1="6.65311" x2="28.7306" y2="-11.0932" gradientUnits="userSpaceOnUse">
<stop stop-color="#FF4D00"/>
<stop offset="1" stop-color="#3C6AC0"/>
</linearGradient>
<linearGradient id="paint5_linear_0_1" x1="96.3882" y1="6.65311" x2="28.7306" y2="-11.0932" gradientUnits="userSpaceOnUse">
<stop stop-color="#FF4D00"/>
<stop offset="1" stop-color="#3C6AC0"/>
</linearGradient>
<linearGradient id="paint6_linear_0_1" x1="96.3882" y1="6.65311" x2="28.7306" y2="-11.0932" gradientUnits="userSpaceOnUse">
<stop stop-color="#FF4D00"/>
<stop offset="1" stop-color="#3C6AC0"/>
</linearGradient>
<linearGradient id="paint7_linear_0_1" x1="96.3882" y1="6.65311" x2="28.7306" y2="-11.0932" gradientUnits="userSpaceOnUse">
<stop stop-color="#FF4D00"/>
<stop offset="1" stop-color="#3C6AC0"/>
</linearGradient>
<linearGradient id="paint8_linear_0_1" x1="96.3882" y1="6.65311" x2="28.7306" y2="-11.0932" gradientUnits="userSpaceOnUse">
<stop stop-color="#FF4D00"/>
<stop offset="1" stop-color="#3C6AC0"/>
</linearGradient>
<linearGradient id="paint9_linear_0_1" x1="96.3882" y1="6.65311" x2="28.7306" y2="-11.0932" gradientUnits="userSpaceOnUse">
<stop stop-color="#FF4D00"/>
<stop offset="1" stop-color="#3C6AC0"/>
</linearGradient>
<linearGradient id="paint10_linear_0_1" x1="96.3882" y1="6.65311" x2="28.7306" y2="-11.0932" gradientUnits="userSpaceOnUse">
<stop stop-color="#FF4D00"/>
<stop offset="1" stop-color="#3C6AC0"/>
</linearGradient>
<linearGradient id="paint11_linear_0_1" x1="96.3882" y1="6.65311" x2="28.7306" y2="-11.0932" gradientUnits="userSpaceOnUse">
<stop stop-color="#FF4D00"/>
<stop offset="1" stop-color="#3C6AC0"/>
</linearGradient>
<linearGradient id="paint12_linear_0_1" x1="96.3882" y1="6.65311" x2="28.7306" y2="-11.0932" gradientUnits="userSpaceOnUse">
<stop stop-color="#FF4D00"/>
<stop offset="1" stop-color="#3C6AC0"/>
</linearGradient>
<linearGradient id="paint13_linear_0_1" x1="96.3882" y1="6.65311" x2="28.7306" y2="-11.0932" gradientUnits="userSpaceOnUse">
<stop stop-color="#FF4D00"/>
<stop offset="1" stop-color="#3C6AC0"/>
</linearGradient>
<linearGradient id="paint14_linear_0_1" x1="96.3882" y1="6.65311" x2="28.7306" y2="-11.0932" gradientUnits="userSpaceOnUse">
<stop stop-color="#FF4D00"/>
<stop offset="1" stop-color="#3C6AC0"/>
</linearGradient>
<linearGradient id="paint15_linear_0_1" x1="96.3882" y1="6.65311" x2="28.7306" y2="-11.0932" gradientUnits="userSpaceOnUse">
<stop stop-color="#FF4D00"/>
<stop offset="1" stop-color="#3C6AC0"/>
</linearGradient>
<clipPath id="clip0_0_1">
<rect width="1024" height="1748" fill="white" transform="translate(-16 -1)"/>
</clipPath>
</defs>
</svg>
